<svg width="175" height="68" viewBox="0 0 175 68" fill="none" xmlns="http://www.w3.org/2000/svg">
<g filter="url(#filter0_d_559_569)">
<rect x="4" width="167" height="60" rx="30" fill="white"/>
<rect x="4.5" y="0.5" width="166" height="59" rx="29.5" stroke="#AAAAAA"/>
</g>
<path d="M63.4971 30.4521C63.4971 32.5674 62.8936 34.1875 61.6865 35.3125C60.4854 36.4375 58.748 37 56.4746 37H52.8359V24.1504H56.8701C58.9678 24.1504 60.5967 24.7041 61.7568 25.8115C62.917 26.9189 63.4971 28.4658 63.4971 30.4521ZM60.667 30.5225C60.667 27.7627 59.4482 26.3828 57.0107 26.3828H55.5605V34.75H56.7295C59.3545 34.75 60.667 33.3408 60.667 30.5225ZM73.5605 37H66.1602V24.1504H73.5605V26.3828H68.8848V29.2041H73.2354V31.4365H68.8848V34.75H73.5605V37ZM83.5801 24.1504H86.3311L81.9629 37H78.9922L74.6328 24.1504H77.3838L79.8008 31.7969C79.9355 32.248 80.0732 32.7754 80.2139 33.3789C80.3604 33.9766 80.4512 34.3926 80.4863 34.627C80.5508 34.0879 80.7705 33.1445 81.1455 31.7969L83.5801 24.1504ZM87.957 37V24.1504H90.6816V37H87.957ZM99.374 26.2334C98.3486 26.2334 97.5547 26.6201 96.9922 27.3936C96.4297 28.1611 96.1484 29.2334 96.1484 30.6104C96.1484 33.4756 97.2236 34.9082 99.374 34.9082C100.276 34.9082 101.369 34.6826 102.652 34.2314V36.5166C101.598 36.9561 100.42 37.1758 99.1191 37.1758C97.25 37.1758 95.8203 36.6104 94.8301 35.4795C93.8398 34.3428 93.3447 32.7139 93.3447 30.5928C93.3447 29.2568 93.5879 28.0879 94.0742 27.0859C94.5605 26.0781 95.2578 25.3076 96.166 24.7744C97.0801 24.2354 98.1494 23.9658 99.374 23.9658C100.622 23.9658 101.876 24.2676 103.136 24.8711L102.257 27.0859C101.776 26.8574 101.293 26.6582 100.807 26.4883C100.32 26.3184 99.8428 26.2334 99.374 26.2334ZM112.795 37H105.395V24.1504H112.795V26.3828H108.119V29.2041H112.47V31.4365H108.119V34.75H112.795V37ZM123.069 33.4316C123.069 34.5918 122.65 35.5059 121.812 36.1738C120.98 36.8418 119.82 37.1758 118.332 37.1758C116.961 37.1758 115.748 36.918 114.693 36.4023V33.8711C115.561 34.2578 116.293 34.5303 116.891 34.6885C117.494 34.8467 118.045 34.9258 118.543 34.9258C119.141 34.9258 119.598 34.8115 119.914 34.583C120.236 34.3545 120.397 34.0146 120.397 33.5635C120.397 33.3115 120.327 33.0889 120.187 32.8955C120.046 32.6963 119.838 32.5059 119.562 32.3242C119.293 32.1426 118.739 31.8525 117.901 31.4541C117.116 31.085 116.527 30.7305 116.135 30.3906C115.742 30.0508 115.429 29.6553 115.194 29.2041C114.96 28.7529 114.843 28.2256 114.843 27.6221C114.843 26.4854 115.227 25.5918 115.994 24.9414C116.768 24.291 117.834 23.9658 119.193 23.9658C119.861 23.9658 120.497 24.0449 121.101 24.2031C121.71 24.3613 122.346 24.584 123.008 24.8711L122.129 26.9893C121.443 26.708 120.875 26.5117 120.424 26.4004C119.979 26.2891 119.539 26.2334 119.105 26.2334C118.59 26.2334 118.194 26.3535 117.919 26.5938C117.644 26.834 117.506 27.1475 117.506 27.5342C117.506 27.7744 117.562 27.9854 117.673 28.167C117.784 28.3428 117.96 28.5156 118.2 28.6855C118.446 28.8496 119.023 29.1484 119.932 29.582C121.133 30.1562 121.956 30.7334 122.401 31.3135C122.847 31.8877 123.069 32.5938 123.069 33.4316Z" fill="#1F1F1F"/>
<defs>
<filter id="filter0_d_559_569" x="0" y="0" width="175" height="68" filterUnits="userSpaceOnUse" color-interpolation-filters="sRGB">
<feFlood flood-opacity="0" result="BackgroundImageFix"/>
<feColorMatrix in="SourceAlpha" type="matrix" values="0 0 0 0 0 0 0 0 0 0 0 0 0 0 0 0 0 0 127 0" result="hardAlpha"/>
<feOffset dy="4"/>
<feGaussianBlur stdDeviation="2"/>
<feColorMatrix type="matrix" values="0 0 0 0 0 0 0 0 0 0 0 0 0 0 0 0 0 0 0.25 0"/>
<feBlend mode="normal" in2="BackgroundImageFix" result="effect1_dropShadow_559_569"/>
<feBlend mode="normal" in="SourceGraphic" in2="effect1_dropShadow_559_569" result="shape"/>
</filter>
</defs>
</svg>
