<svg width="175" height="68" viewBox="0 0 175 68" fill="none" xmlns="http://www.w3.org/2000/svg">
<g filter="url(#filter0_bd_559_555)">
<rect x="4" width="167" height="60" rx="30" fill="#FE018F" fill-opacity="0.3"/>
<rect x="4.5" y="0.5" width="166" height="59" rx="29.5" stroke="#B08D96"/>
</g>
<path d="M46.4912 25.2334C45.4658 25.2334 44.6719 25.6201 44.1094 26.3936C43.5469 27.1611 43.2656 28.2334 43.2656 29.6104C43.2656 32.4756 44.3408 33.9082 46.4912 33.9082C47.3936 33.9082 48.4863 33.6826 49.7695 33.2314V35.5166C48.7148 35.9561 47.5371 36.1758 46.2363 36.1758C44.3672 36.1758 42.9375 35.6104 41.9473 34.4795C40.957 33.3428 40.4619 31.7139 40.4619 29.5928C40.4619 28.2568 40.7051 27.0879 41.1914 26.0859C41.6777 25.0781 42.375 24.3076 43.2832 23.7744C44.1973 23.2354 45.2666 22.9658 46.4912 22.9658C47.7393 22.9658 48.9932 23.2676 50.2529 23.8711L49.374 26.0859C48.8936 25.8574 48.4102 25.6582 47.9238 25.4883C47.4375 25.3184 46.96 25.2334 46.4912 25.2334ZM64.1748 29.5576C64.1748 31.6846 63.6475 33.3193 62.5928 34.4619C61.5381 35.6045 60.0264 36.1758 58.0576 36.1758C56.0889 36.1758 54.5771 35.6045 53.5225 34.4619C52.4678 33.3193 51.9404 31.6787 51.9404 29.54C51.9404 27.4014 52.4678 25.7695 53.5225 24.6445C54.583 23.5137 56.1006 22.9482 58.0752 22.9482C60.0498 22.9482 61.5586 23.5166 62.6016 24.6533C63.6504 25.79 64.1748 27.4248 64.1748 29.5576ZM54.7969 29.5576C54.7969 30.9932 55.0693 32.0742 55.6143 32.8008C56.1592 33.5273 56.9736 33.8906 58.0576 33.8906C60.2314 33.8906 61.3184 32.4463 61.3184 29.5576C61.3184 26.6631 60.2373 25.2158 58.0752 25.2158C56.9912 25.2158 56.1738 25.582 55.623 26.3145C55.0723 27.041 54.7969 28.1221 54.7969 29.5576ZM78.2373 36H74.7744L69.1846 26.2793H69.1055C69.2168 27.9961 69.2725 29.2207 69.2725 29.9531V36H66.8379V23.1504H70.2744L75.8555 32.7744H75.917C75.8291 31.1045 75.7852 29.9238 75.7852 29.2324V23.1504H78.2373V36ZM86.4375 36H83.7129V25.418H80.2236V23.1504H89.9268V25.418H86.4375V36ZM91.9043 36V23.1504H94.6289V36H91.9043ZM109.263 36H105.8L100.21 26.2793H100.131C100.242 27.9961 100.298 29.2207 100.298 29.9531V36H97.8633V23.1504H101.3L106.881 32.7744H106.942C106.854 31.1045 106.811 29.9238 106.811 29.2324V23.1504H109.263V36ZM122.965 23.1504V31.4648C122.965 32.4141 122.751 33.2461 122.323 33.9609C121.901 34.6758 121.289 35.2236 120.486 35.6045C119.684 35.9854 118.734 36.1758 117.639 36.1758C115.986 36.1758 114.703 35.7539 113.789 34.9102C112.875 34.0605 112.418 32.9004 112.418 31.4297V23.1504H115.134V31.0166C115.134 32.0068 115.333 32.7334 115.731 33.1963C116.13 33.6592 116.789 33.8906 117.709 33.8906C118.6 33.8906 119.244 33.6592 119.643 33.1963C120.047 32.7275 120.249 31.9951 120.249 30.999V23.1504H122.965ZM133.512 36H126.111V23.1504H133.512V25.3828H128.836V28.2041H133.187V30.4365H128.836V33.75H133.512V36Z" fill="#CDCDCD"/>
<defs>
<filter id="filter0_bd_559_555" x="-11" y="-15" width="197" height="90" filterUnits="userSpaceOnUse" color-interpolation-filters="sRGB">
<feFlood flood-opacity="0" result="BackgroundImageFix"/>
<feGaussianBlur in="BackgroundImage" stdDeviation="7.5"/>
<feComposite in2="SourceAlpha" operator="in" result="effect1_backgroundBlur_559_555"/>
<feColorMatrix in="SourceAlpha" type="matrix" values="0 0 0 0 0 0 0 0 0 0 0 0 0 0 0 0 0 0 127 0" result="hardAlpha"/>
<feOffset dy="4"/>
<feGaussianBlur stdDeviation="2"/>
<feColorMatrix type="matrix" values="0 0 0 0 0 0 0 0 0 0 0 0 0 0 0 0 0 0 0.25 0"/>
<feBlend mode="normal" in2="effect1_backgroundBlur_559_555" result="effect2_dropShadow_559_555"/>
<feBlend mode="normal" in="SourceGraphic" in2="effect2_dropShadow_559_555" result="shape"/>
</filter>
</defs>
</svg>
