<svg width="60" height="60" viewBox="0 0 60 60" fill="none" xmlns="http://www.w3.org/2000/svg">
<circle cx="30" cy="30" r="29.5" fill="#ECECEC" stroke="#D3D3D3"/>
<g clip-path="url(#clip0_28_443)">
<path d="M42.3633 25.8472H40.5509C39.9574 24.4353 39.0732 23.1334 37.9533 22.0478C36.193 20.3415 33.914 19.2297 31.5362 18.9171C27.596 18.3992 23.7342 19.9083 21.2061 22.9539C20.4806 23.8279 19.8902 24.806 19.4544 25.8472H17.6367C16.1828 25.8472 15 27.0301 15 28.484V31.9996C15 33.4535 16.1828 34.6363 17.6367 34.6363H21.2373L20.8608 33.4844C19.7636 30.1273 20.3824 26.6984 22.5587 24.0766C24.6986 21.4985 27.9692 20.2212 31.3071 20.6599C35.4881 21.2095 38.8734 24.493 39.5395 28.6448C39.9941 31.4779 39.2011 34.3406 37.3638 36.4992C35.5222 38.6628 32.8432 39.9058 30.0135 39.9097C28.5522 39.9117 27.3633 41.0946 27.3633 42.5465C27.3633 44.0003 28.5462 45.1832 30.0001 45.1832C31.4539 45.1832 32.6368 44.0003 32.6368 42.5465V41.3591C34.9781 40.803 37.1067 39.5134 38.7024 37.6385C39.4775 36.728 40.0946 35.7218 40.5472 34.6362H42.3633C43.8172 34.6362 45 33.4534 45 31.9995V28.4839C45 27.0301 43.8172 25.8472 42.3633 25.8472ZM18.871 32.8785H17.6367C17.1521 32.8785 16.7578 32.4842 16.7578 31.9996V28.484C16.7578 27.9993 17.1521 27.6051 17.6367 27.6051H18.8815C18.8502 27.7368 18.8212 27.8692 18.7948 28.002C18.474 29.6093 18.5 31.2449 18.871 32.8785ZM30.8789 42.5465C30.8789 43.0311 30.4846 43.4254 30 43.4254C29.5154 43.4254 29.1211 43.0311 29.1211 42.5465C29.1211 42.0625 29.5225 41.6682 30.0159 41.6676C30.305 41.6671 30.593 41.6558 30.8789 41.6338V42.5465ZM43.2422 31.9996C43.2422 32.4842 42.8479 32.8785 42.3633 32.8785H41.1179C41.4669 31.4107 41.5205 29.8957 41.2751 28.3663C41.2342 28.111 41.1833 27.8571 41.124 27.6051H42.3633C42.8479 27.6051 43.2422 27.9993 43.2422 28.484V31.9996Z" fill="#5E5E5E"/>
<path d="M25.6055 29.3629H27.3633V31.1207H25.6055V29.3629Z" fill="#5E5E5E"/>
<path d="M29.1211 29.3629H30.8789V31.1207H29.1211V29.3629Z" fill="#5E5E5E"/>
<path d="M32.6367 29.3629H34.3945V31.1207H32.6367V29.3629Z" fill="#5E5E5E"/>
<path d="M22.0898 36.3941V38.1519H30C34.3617 38.1519 37.9102 34.6034 37.9102 30.2418C37.9102 25.8801 34.3617 22.3316 30 22.3316C25.6383 22.3316 22.0898 25.8801 22.0898 30.2418C22.0898 32.0194 22.6869 33.7382 23.779 35.1278C23.5672 35.8686 22.8906 36.3941 22.0898 36.3941ZM30 24.0894C33.3924 24.0894 36.1523 26.8494 36.1523 30.2418C36.1523 33.6342 33.3924 36.3941 30 36.3941H25.1353C25.3872 35.9583 25.544 35.4704 25.5907 34.9602L25.6252 34.5839L25.3758 34.3C24.3904 33.1781 23.8477 31.7368 23.8477 30.2418C23.8477 26.8494 26.6076 24.0894 30 24.0894Z" fill="#5E5E5E"/>
</g>
<defs>
<clipPath id="clip0_28_443">
<rect width="30" height="30" fill="white" transform="translate(15 17)"/>
</clipPath>
</defs>
</svg>
